{"accessors" : [{"bufferView" : 0, "byteOffset" : 0, "componentType" : 5123, "count" : 204, "type" : "SCALAR", "max" : [79], "min" : [0]}, {"bufferView" : 1, "byteOffset" : 0, "componentType" : 5126, "count" : 80, "type" : "VEC3", "max" : [1, 0.8273645639419556, 6.642770767211914], "min" : [-1, -0.8273645639419556, -6.642770767211914], "name" : "POSITION"}, {"bufferView" : 1, "byteOffset" : 12, "componentType" : 5126, "count" : 80, "type" : "VEC3", "max" : [1.0000044107437134, 1.0000044107437134, 1.0000044107437134], "min" : [-1.0000044107437134, -1.0000044107437134, -1.0000044107437134], "name" : "NORMAL"}, {"bufferView" : 1, "byteOffset" : 24, "componentType" : 5126, "count" : 80, "type" : "VEC2", "max" : [0.875, 2], "min" : [0.125, 1], "name" : "TEXCOORD_0"}, {"bufferView" : 2, "byteOffset" : 0, "componentType" : 5126, "normalized" : false, "count" : 2, "type" : "SCALAR", "max" : [3.125], "min" : [0.0416666679084301]}, {"bufferView" : 2, "byteOffset" : 8, "componentType" : 5126, "normalized" : false, "count" : 2, "type" : "VEC3", "max" : [0, 7.314812933145731E-08, 0.9688763618469238], "min" : [0, 7.314812933145731E-08, 0.9688763618469238]}, {"bufferView" : 3, "byteOffset" : 0, "componentType" : 5126, "normalized" : false, "count" : 2, "type" : "SCALAR", "max" : [3.125], "min" : [0.0416666679084301]}, {"bufferView" : 3, "byteOffset" : 8, "componentType" : 5126, "normalized" : false, "count" : 2, "type" : "VEC4", "max" : [-0.002870547119528055, 0.004090611822903156, 5.028399027651176E-05, 0.9999875426292419], "min" : [-0.002870547119528055, 0.004090611822903156, 5.028399027651176E-05, 0.9999875426292419]}, {"bufferView" : 4, "byteOffset" : 0, "componentType" : 5126, "normalized" : false, "count" : 2, "type" : "SCALAR", "max" : [3.125], "min" : [0.0416666679084301]}, {"bufferView" : 4, "byteOffset" : 8, "componentType" : 5126, "normalized" : false, "count" : 2, "type" : "VEC3", "max" : [0.9999999403953552, 0.9999999403953552, 1], "min" : [0.9999999403953552, 0.9999999403953552, 1]}, {"bufferView" : 5, "byteOffset" : 0, "componentType" : 5126, "normalized" : false, "count" : 2, "type" : "SCALAR", "max" : [3.125], "min" : [0.0416666679084301]}, {"bufferView" : 5, "byteOffset" : 8, "componentType" : 5126, "normalized" : false, "count" : 2, "type" : "VEC3", "max" : [-6.039044819772243E-10, 1, -4.357389116194099E-09], "min" : [-6.039044819772243E-10, 1, -4.357389116194099E-09]}, {"bufferView" : 6, "byteOffset" : 0, "componentType" : 5126, "normalized" : false, "count" : 2, "type" : "SCALAR", "max" : [3.125], "min" : [0.0416666679084301]}, {"bufferView" : 6, "byteOffset" : 8, "componentType" : 5126, "normalized" : false, "count" : 2, "type" : "VEC4", "max" : [-3.7632535310194726E-08, -4.656683927350969E-10, 1.8190069676210507E-12, 1], "min" : [-3.7632535310194726E-08, -4.656683927350969E-10, 1.8190069676210507E-12, 1]}, {"bufferView" : 7, "byteOffset" : 0, "componentType" : 5126, "normalized" : false, "count" : 2, "type" : "SCALAR", "max" : [3.125], "min" : [0.0416666679084301]}, {"bufferView" : 7, "byteOffset" : 8, "componentType" : 5126, "normalized" : false, "count" : 2, "type" : "VEC3", "max" : [1, 1, 1], "min" : [1, 1, 1]}, {"bufferView" : 8, "byteOffset" : 0, "componentType" : 5126, "normalized" : false, "count" : 2, "type" : "SCALAR", "max" : [3.125], "min" : [0.0416666679084301]}, {"bufferView" : 8, "byteOffset" : 8, "componentType" : 5126, "normalized" : false, "count" : 2, "type" : "VEC3", "max" : [-9.167706593871117E-10, 1.1197103261947632, -7.27253990362442E-09], "min" : [-9.167706593871117E-10, 1.1197103261947632, -7.27253990362442E-09]}, {"bufferView" : 9, "byteOffset" : 0, "componentType" : 5126, "normalized" : false, "count" : 75, "type" : "SCALAR", "max" : [3.125], "min" : [0.0416666679084301]}, {"bufferView" : 9, "byteOffset" : 300, "componentType" : 5126, "normalized" : false, "count" : 75, "type" : "VEC4", "max" : [0.38181784749031067, -4.656683927350969E-10, 0.0031236920040100813, 1], "min" : [1.1641532182693481E-10, -4.736729897558689E-05, 1.8189894035458565E-12, 0.9242323040962219]}, {"bufferView" : 10, "byteOffset" : 0, "componentType" : 5126, "normalized" : false, "count" : 2, "type" : "SCALAR", "max" : [3.125], "min" : [0.0416666679084301]}, {"bufferView" : 10, "byteOffset" : 8, "componentType" : 5126, "normalized" : false, "count" : 2, "type" : "VEC3", "max" : [1, 1, 1], "min" : [1, 0.9999999403953552, 0.9999999403953552]}, {"bufferView" : 11, "byteOffset" : 0, "componentType" : 5126, "normalized" : false, "count" : 2, "type" : "SCALAR", "max" : [3.125], "min" : [0.0416666679084301]}, {"bufferView" : 11, "byteOffset" : 8, "componentType" : 5126, "normalized" : false, "count" : 2, "type" : "VEC3", "max" : [6.693881005048752E-10, 1.342429518699646, 6.273715769111732E-08], "min" : [-1.1641532182693481E-10, 1.3424293994903564, -3.039191653897433E-08]}, {"bufferView" : 12, "byteOffset" : 0, "componentType" : 5126, "normalized" : false, "count" : 2, "type" : "SCALAR", "max" : [3.125], "min" : [0.0416666679084301]}, {"bufferView" : 12, "byteOffset" : 8, "componentType" : 5126, "normalized" : false, "count" : 2, "type" : "VEC4", "max" : [1.1640466368589841E-10, -2.3283064365386963E-10, 1.8189894035458565E-12, 1], "min" : [1.893596390800667E-12, -4.656683927350969E-10, -1.1641532182693481E-10, 1]}, {"bufferView" : 13, "byteOffset" : 0, "componentType" : 5126, "normalized" : false, "count" : 2, "type" : "SCALAR", "max" : [3.125], "min" : [0.0416666679084301]}, {"bufferView" : 13, "byteOffset" : 8, "componentType" : 5126, "normalized" : false, "count" : 2, "type" : "VEC3", "max" : [1, 1, 1], "min" : [1, 1, 1]}, {"bufferView" : 14, "byteOffset" : 0, "componentType" : 5126, "normalized" : false, "count" : 2, "type" : "SCALAR", "max" : [3.125], "min" : [0.0416666679084301]}, {"bufferView" : 14, "byteOffset" : 8, "componentType" : 5126, "normalized" : false, "count" : 2, "type" : "VEC3", "max" : [2.0954757928848267E-09, 1.5876392126083374, -7.69809958001133E-08], "min" : [2.9103830456733704E-10, 1.5876389741897583, -1.1796691978815943E-07]}, {"bufferView" : 15, "byteOffset" : 0, "componentType" : 5126, "normalized" : false, "count" : 2, "type" : "SCALAR", "max" : [3.125], "min" : [0.0416666679084301]}, {"bufferView" : 15, "byteOffset" : 8, "componentType" : 5126, "normalized" : false, "count" : 2, "type" : "VEC4", "max" : [1.1641887454061361E-10, -2.3283064365386963E-10, 1.8189894035458565E-12, 1], "min" : [1.907807245515869E-12, -4.656683927350969E-10, -1.1641532182693481E-10, 1]}, {"bufferView" : 16, "byteOffset" : 0, "componentType" : 5126, "normalized" : false, "count" : 2, "type" : "SCALAR", "max" : [3.125], "min" : [0.0416666679084301]}, {"bufferView" : 16, "byteOffset" : 8, "componentType" : 5126, "normalized" : false, "count" : 2, "type" : "VEC3", "max" : [1, 1, 1], "min" : [1, 1, 1]}], "animations" : [{"channels" : [{"sampler" : 0, "target" : {"node" : -1, "path" : "translation"}}, {"sampler" : 1, "target" : {"node" : -1, "path" : "rotation"}}, {"sampler" : 2, "target" : {"node" : -1, "path" : "scale"}}, {"sampler" : 3, "target" : {"node" : -1, "path" : "translation"}}, {"sampler" : 4, "target" : {"node" : -1, "path" : "rotation"}}, {"sampler" : 5, "target" : {"node" : -1, "path" : "scale"}}, {"sampler" : 6, "target" : {"node" : -1, "path" : "translation"}}, {"sampler" : 7, "target" : {"node" : -1, "path" : "rotation"}}, {"sampler" : 8, "target" : {"node" : -1, "path" : "scale"}}, {"sampler" : 9, "target" : {"node" : -1, "path" : "translation"}}, {"sampler" : 10, "target" : {"node" : -1, "path" : "rotation"}}, {"sampler" : 11, "target" : {"node" : -1, "path" : "scale"}}, {"sampler" : 12, "target" : {"node" : -1, "path" : "translation"}}, {"sampler" : 13, "target" : {"node" : -1, "path" : "rotation"}}, {"sampler" : 14, "target" : {"node" : -1, "path" : "scale"}}], "samplers" : [{"input" : 4, "interpolation" : "LINEAR", "output" : 5}, {"input" : 6, "interpolation" : "LINEAR", "output" : 7}, {"input" : 8, "interpolation" : "LINEAR", "output" : 9}, {"input" : 10, "interpolation" : "LINEAR", "output" : 11}, {"input" : 12, "interpolation" : "LINEAR", "output" : 13}, {"input" : 14, "interpolation" : "LINEAR", "output" : 15}, {"input" : 16, "interpolation" : "LINEAR", "output" : 17}, {"input" : 18, "interpolation" : "LINEAR", "output" : 19}, {"input" : 20, "interpolation" : "LINEAR", "output" : 21}, {"input" : 22, "interpolation" : "LINEAR", "output" : 23}, {"input" : 24, "interpolation" : "LINEAR", "output" : 25}, {"input" : 26, "interpolation" : "LINEAR", "output" : 27}, {"input" : 28, "interpolation" : "LINEAR", "output" : 29}, {"input" : 30, "interpolation" : "LINEAR", "output" : 31}, {"input" : 32, "interpolation" : "LINEAR", "output" : 33}], "name" : "ArmatureAction"}], "asset" : {"generator" : "Aspose.3D 24.6.0", "version" : "2.0"}, "buffers" : [{"uri" : "data:application/octet-stream;base64,", "byteLength" : 5016}], "bufferViews" : [{"buffer" : 0, "byteOffset" : 0, "byteLength" : 408, "target" : 34963}, {"buffer" : 0, "byteOffset" : 412, "byteLength" : 2560, "byteStride" : 32, "target" : 34962}, {"buffer" : 0, "byteOffset" : 2976, "byteLength" : 32}, {"buffer" : 0, "byteOffset" : 3012, "byteLength" : 40}, {"buffer" : 0, "byteOffset" : 3056, "byteLength" : 32}, {"buffer" : 0, "byteOffset" : 3092, "byteLength" : 32}, {"buffer" : 0, "byteOffset" : 3128, "byteLength" : 40}, {"buffer" : 0, "byteOffset" : 3172, "byteLength" : 32}, {"buffer" : 0, "byteOffset" : 3208, "byteLength" : 32}, {"buffer" : 0, "byteOffset" : 3244, "byteLength" : 1500}, {"buffer" : 0, "byteOffset" : 4748, "byteLength" : 32}, {"buffer" : 0, "byteOffset" : 4784, "byteLength" : 32}, {"buffer" : 0, "byteOffset" : 4820, "byteLength" : 40}, {"buffer" : 0, "byteOffset" : 4864, "byteLength" : 32}, {"buffer" : 0, "byteOffset" : 4900, "byteLength" : 32}, {"buffer" : 0, "byteOffset" : 4936, "byteLength" : 40}, {"buffer" : 0, "byteOffset" : 4980, "byteLength" : 32}], "materials" : [{"name" : "Material", "pbrMetallicRoughness" : {"baseColorFactor" : [0.800000011920929, 0.800000011920929, 0.800000011920929, 1], "metallicFactor" : 0, "roughnessFactor" : 0.5}, "emissiveFactor" : [0, 0, 0], "alphaMode" : "OPAQUE", "doubleSided" : true}], "meshes" : [{"primitives" : [{"attributes" : {"POSITION" : 1, "NORMAL" : 2, "TEXCOORD_0" : 3}, "indices" : 0, "material" : 0, "mode" : 4}]}], "nodes" : [{"mesh" : 0, "name" : "Cube"}, {"children" : [0], "matrix" : [1, 0, 0, 0, 0, -1.3435885648505064E-07, -1.0000001343588565, 0, 0, 1.0000001343588565, -1.3435885648505064E-07, 0, 0, -1.0828238725662231, 0, 1], "name" : "Armature"}], "scene" : 0, "scenes" : [{"nodes" : [1]}]}